<svg width="70" height="41" viewBox="0 0 70 41" fill="none" xmlns="http://www.w3.org/2000/svg">
<path d="M68.508 4.40058C67.5866 2.75883 66.113 1.74131 64.3616 1.07494C61.8622 0.124529 59.2424 -0.0533798 56.5969 0.0121655C53.2579 0.0933169 49.9784 0.612998 46.7309 1.34648C40.8957 2.66675 35.2949 4.64092 29.853 7.05829C29.5914 7.17377 29.3714 7.17377 29.0969 7.09262C27.413 6.59167 25.7339 6.06731 24.0291 5.6397C20.4188 4.73611 16.7604 4.14933 13.0121 4.34596C11.2383 4.43804 9.50938 4.74548 7.90731 5.53826C5.49619 6.73368 4.30186 8.82333 4.54426 11.4358C4.65823 12.6749 5.03066 13.8532 5.70808 14.891C5.7113 14.8972 5.76587 14.9721 5.76908 14.9768C5.79798 15.0158 5.82687 15.0564 5.85256 15.097C6.58135 16.141 7.00194 17.3988 7.00194 18.7566C7.00194 20.0394 6.62309 21.2364 5.96653 22.2461C5.9553 22.2695 5.93924 22.2913 5.9248 22.3147C5.77551 22.5395 5.61177 22.7548 5.43519 22.9593C5.43519 22.9593 5.43358 22.9593 5.43358 22.9624C5.33406 23.0904 5.22971 23.2168 5.12055 23.3432C4.7401 23.7786 4.34039 24.1984 3.97118 24.6432C2.46703 26.4503 1.14589 28.3636 0.42994 30.6109C-0.85749 34.6529 0.787917 38.0503 4.80913 39.6655C6.5348 40.3569 8.34716 40.6472 10.1964 40.7502C14.017 40.9624 17.7701 40.4646 21.4928 39.6921C26.5349 38.648 31.4037 37.0687 36.1585 35.1492C36.433 35.0383 36.6722 35.0196 36.9596 35.1164C37.629 35.3395 38.3096 35.5299 38.9902 35.7188C42.7129 36.7519 46.4885 37.4885 50.6574 37.5634C51.0603 37.5431 51.7426 37.5275 52.4216 37.4713C54.1248 37.3324 55.7814 37.0031 57.2888 36.1729C58.947 35.26 60.0402 33.9288 60.3597 32.0701C60.5989 30.6655 60.3179 29.3203 59.7465 28.0359C59.7304 28.0016 59.716 27.9673 59.7015 27.9329C59.6598 27.8424 59.6196 27.7503 59.5827 27.6583C59.5811 27.6536 59.5795 27.6489 59.5763 27.6426C59.3195 26.9981 59.1846 26.3333 59.1686 25.6373C59.1397 24.1625 59.4591 22.8376 60.1879 21.6577C60.1895 21.6531 60.1927 21.6499 60.1959 21.6452C60.5298 21.1053 60.9504 20.5965 61.4609 20.1174C62.8816 18.7847 64.2444 17.3848 65.5287 15.9272C66.9782 14.2823 68.1501 12.4486 68.8419 10.3668C69.5162 8.33955 69.5916 6.33105 68.508 4.40058ZM13.5884 8.35047C13.5964 8.34891 13.6044 8.34891 13.6141 8.34891C13.6911 8.34579 13.7682 8.34267 13.8468 8.34111C17.0638 8.24435 20.2005 8.8561 23.3196 9.60207C23.5443 9.65669 23.769 9.72536 23.9938 9.78779C23.997 9.78779 23.9986 9.78935 24.0018 9.78935C21.9101 10.9988 19.8698 12.2067 17.7958 13.36C17.1697 13.7096 16.4698 13.964 15.7732 14.1606C14.8469 14.4212 13.948 14.3869 13.0747 14.1575C13.0169 14.1434 12.9607 14.1278 12.9045 14.1107C12.8612 14.0966 12.8178 14.0826 12.7745 14.067C11.6123 13.6534 10.7824 12.5672 10.7824 11.2938C10.7824 9.73785 12.02 8.46439 13.5884 8.35047ZM23.692 35.0446C21.7111 35.5877 19.6981 36.009 17.6642 36.3087C17.1649 36.382 16.6641 36.4491 16.1616 36.5069C13.5065 36.8159 10.8466 36.9766 8.20429 36.4585C8.08068 36.4351 7.95547 36.4086 7.83186 36.382C7.21223 36.2447 6.5958 36.0403 6.02111 35.7781C4.36447 35.0181 3.83473 33.8773 4.2826 32.1434C4.65823 30.6952 5.43679 29.442 6.33093 28.2544C6.56209 27.9485 6.79165 27.6395 7.03083 27.3415C7.60231 26.6314 8.22997 25.9728 9.06953 25.5093C11.2752 24.2936 13.5434 24.1329 15.8871 25.0458C15.9096 25.0536 15.9337 25.063 15.9562 25.0723C16.1889 25.1644 16.4088 25.2955 16.6159 25.4344C16.624 25.4406 16.632 25.4453 16.64 25.45C16.7572 25.5218 16.8728 25.5983 16.9851 25.6778C21.1813 28.451 25.6408 30.7498 30.2993 32.699C30.3972 32.7396 30.4967 32.7786 30.5931 32.8223C30.6139 32.8317 30.6236 32.8629 30.7118 32.9908C28.3376 33.6884 26.026 34.4047 23.692 35.0446ZM37.5856 30.2176H37.584C37.2646 30.2567 36.9403 30.2769 36.6096 30.2769C35.6577 30.2769 34.7459 30.1084 33.9047 29.7994C33.7458 29.7417 33.5885 29.6777 33.4328 29.609C31.256 28.7288 29.1066 27.794 27.0037 26.7578C26.6489 26.6095 26.307 26.4379 25.9811 26.2428C23.7674 24.9178 22.2922 22.541 22.2922 19.8287C22.2922 16.9728 23.9263 14.4899 26.3359 13.2117C26.4001 13.179 26.4659 13.1446 26.5317 13.1134C27.4804 12.6296 28.4372 12.163 29.4003 11.7089C29.5673 11.6309 29.8225 11.6168 29.9959 11.6808C33.4135 12.9277 36.73 14.39 39.9165 16.1145C39.9213 16.1176 39.9261 16.1192 39.9309 16.1207C40.2793 16.2846 40.6132 16.4734 40.931 16.6841C41.517 17.0742 42.0451 17.5424 42.501 18.073C42.5058 18.0808 42.5122 18.0886 42.5202 18.0964C43.6118 19.3824 44.2684 21.0335 44.2684 22.8313C44.2684 26.622 41.3548 29.751 37.5856 30.2176ZM54.693 32.9393C54.1858 33.4777 53.4779 33.832 52.6832 33.8897C52.6752 33.8913 52.6672 33.8913 52.6576 33.8913C52.5805 33.8944 52.5035 33.8975 52.4248 33.8991C49.2078 33.9959 46.0711 33.3841 42.9521 32.6381C42.7241 32.5835 42.4978 32.5133 42.2698 32.4509C44.3615 31.2414 46.4018 30.0335 48.4758 28.8802C49.1019 28.5306 49.8018 28.2763 50.4985 28.0796C51.4247 27.819 52.3237 27.8533 53.1969 28.0827C53.2547 28.0968 53.3109 28.1124 53.3671 28.1296C54.2837 28.412 55.0141 29.1049 55.3255 29.9882C55.4315 30.2894 55.4893 30.6109 55.4893 30.9464C55.4893 31.7143 55.1875 32.415 54.693 32.9393ZM65.0728 8.55647C64.7084 10.0515 63.9057 11.3343 62.9955 12.5594C61.9184 14.0077 60.7064 15.3404 59.3676 16.5514C58.0705 17.9778 56.1747 18.8767 54.0622 18.8767C52.29 18.8767 50.6718 18.2431 49.4294 17.1975C49.4277 17.196 49.4261 17.196 49.4245 17.1944C45.0694 14.1044 40.3628 11.6074 35.4362 9.49127C35.3029 9.43353 35.1697 9.37423 34.9129 9.26186C36.4844 8.68912 37.9468 8.12886 39.4285 7.62011C43.3309 6.27487 47.3072 5.19181 51.4006 4.5426C54.1248 4.11031 56.8618 3.87154 59.6212 4.11811C60.9279 4.23516 62.2122 4.47081 63.4001 5.05448C64.9427 5.81293 65.4693 6.92564 65.0728 8.55647Z" fill="#0D1B42"/>
</svg>
