<svg width="1272" height="521" viewBox="0 0 1272 521" fill="none" xmlns="http://www.w3.org/2000/svg">
<g clip-path="url(#clip0_62_4078)">
<g opacity="0.2">
<path d="M129 437L233.68 343.032C235.261 341.612 237.677 341.677 239.18 343.18L263.155 367.155C264.515 368.515 266.65 368.715 268.239 367.631L506.313 205.152C507.372 204.428 508.715 204.257 509.922 204.692L582.343 230.764C582.778 230.92 583.236 231 583.698 231H728.867C730.2 231 731.446 231.664 732.189 232.771L803.588 339.141C804.172 340.012 805.076 340.618 806.103 340.83L945.101 369.418C945.366 369.473 945.636 369.5 945.907 369.5H1122.5" stroke="url(#paint0_radial_62_4078)" stroke-width="5"/>
<path d="M233.68 343.032L130.328 435.808C129.483 436.567 129 437.649 129 438.785V468.5C129 470.709 130.791 472.5 133 472.5H1118.5C1120.71 472.5 1122.5 470.709 1122.5 468.5V373.5C1122.5 371.291 1120.71 369.5 1118.5 369.5H945.907C945.636 369.5 945.366 369.473 945.101 369.418L806.103 340.83C805.076 340.618 804.172 340.012 803.588 339.141L732.189 232.771C731.446 231.664 730.2 231 728.867 231H583.577C583.194 231 582.813 230.945 582.446 230.837L506.806 208.533C505.662 208.195 504.427 208.386 503.439 209.053L268.234 367.657C266.646 368.727 264.523 368.523 263.169 367.169L239.18 343.18C237.677 341.677 235.261 341.612 233.68 343.032Z" fill="url(#paint1_linear_62_4078)"/>
<path d="M237.552 268.164C237.552 272.772 247.56 269.196 247.56 275.892C247.56 279.036 245.016 280.788 241.536 280.788C238.032 280.788 235.632 279.18 234.912 275.892H237.216C237.744 277.836 239.208 278.892 241.56 278.892C244.008 278.892 245.304 277.812 245.304 276.18C245.304 271.188 235.296 274.908 235.296 268.308C235.296 265.956 237.264 263.892 240.864 263.892C244.008 263.892 246.528 265.404 247.128 268.884H244.8C244.296 266.724 242.904 265.788 240.816 265.788C238.752 265.788 237.552 266.724 237.552 268.164ZM251.365 271.908H249.253C249.661 269.1 251.509 267.444 254.629 267.444C258.037 267.444 259.693 269.436 259.693 272.412V277.428C259.693 278.892 259.813 279.804 260.149 280.5H257.917C257.677 279.996 257.605 279.252 257.581 278.484C256.501 280.092 254.773 280.788 253.237 280.788C250.597 280.788 248.821 279.564 248.821 277.14C248.821 275.388 249.781 274.116 251.653 273.492C253.381 272.916 255.133 272.772 257.581 272.748V272.46C257.581 270.396 256.621 269.268 254.437 269.268C252.613 269.268 251.629 270.276 251.365 271.908ZM250.981 277.092C250.981 278.268 251.965 278.964 253.453 278.964C255.805 278.964 257.581 277.116 257.581 274.932V274.332C252.157 274.38 250.981 275.532 250.981 277.092ZM262.435 280.5V267.756H264.547V269.484C265.411 268.14 266.803 267.444 268.483 267.444C271.195 267.444 272.803 269.028 272.803 271.98V280.5H270.691V272.412C270.691 270.492 269.827 269.244 267.907 269.244C265.795 269.244 264.547 271.14 264.547 272.964V280.5H262.435ZM277.01 271.02C277.01 274.572 285.29 271.644 285.29 276.9C285.29 279.276 283.178 280.788 280.178 280.788C277.154 280.788 275.042 279.348 274.562 276.348H276.674C276.962 278.124 278.282 279.108 280.25 279.108C282.17 279.108 283.178 278.244 283.178 277.044C283.178 273.564 274.994 276.444 274.994 271.164C274.994 269.22 276.506 267.444 279.626 267.444C282.386 267.444 284.426 268.74 284.834 271.908H282.722C282.41 269.916 281.306 269.172 279.506 269.172C277.922 269.172 277.01 269.964 277.01 271.02ZM291.358 280.5V264.18H297.094C300.454 264.18 302.614 265.86 302.614 268.524C302.614 270.084 301.774 271.332 300.214 271.932C302.35 272.484 303.502 273.972 303.502 275.916C303.502 278.82 301.39 280.5 297.91 280.5H291.358ZM297.046 265.956H293.566V271.26H296.998C299.11 271.26 300.334 270.204 300.334 268.644C300.334 266.988 299.086 265.956 297.046 265.956ZM297.526 273.036H293.566V278.724H297.862C299.95 278.724 301.246 277.596 301.246 275.868C301.246 274.14 299.83 273.036 297.526 273.036ZM310.677 280.788C307.029 280.788 304.845 278.292 304.845 274.14C304.845 269.82 307.101 267.444 310.677 267.444C314.325 267.444 316.509 269.988 316.509 274.14C316.509 278.436 314.253 280.788 310.677 280.788ZM310.677 278.964C313.053 278.964 314.349 277.26 314.349 274.14C314.349 271.044 313.029 269.268 310.677 269.268C308.301 269.268 307.005 270.996 307.005 274.14C307.005 277.212 308.325 278.964 310.677 278.964ZM323.691 280.788C320.043 280.788 317.859 278.292 317.859 274.14C317.859 269.82 320.115 267.444 323.691 267.444C327.339 267.444 329.523 269.988 329.523 274.14C329.523 278.436 327.267 280.788 323.691 280.788ZM323.691 278.964C326.067 278.964 327.363 277.26 327.363 274.14C327.363 271.044 326.043 269.268 323.691 269.268C321.315 269.268 320.019 270.996 320.019 274.14C320.019 277.212 321.339 278.964 323.691 278.964ZM333.082 271.02C333.082 274.572 341.362 271.644 341.362 276.9C341.362 279.276 339.25 280.788 336.25 280.788C333.226 280.788 331.114 279.348 330.634 276.348H332.746C333.034 278.124 334.354 279.108 336.322 279.108C338.242 279.108 339.25 278.244 339.25 277.044C339.25 273.564 331.066 276.444 331.066 271.164C331.066 269.22 332.578 267.444 335.698 267.444C338.458 267.444 340.498 268.74 340.906 271.908H338.794C338.482 269.916 337.378 269.172 335.578 269.172C333.994 269.172 333.082 269.964 333.082 271.02ZM343.441 276.828V269.436H341.665V267.756H343.441V264.828H345.553V267.756H348.361V269.436H345.553V276.828C345.553 278.364 346.009 279.084 347.881 279.084H348.313V280.596C348.073 280.716 347.545 280.788 346.945 280.788C344.569 280.788 343.441 279.516 343.441 276.828Z" fill="#184DD9"/>
<circle cx="291.5" cy="346" r="5.5" fill="#184DD9"/>
<line x1="291" y1="343.5" x2="291" y2="287.5" stroke="#184DD9" stroke-width="2"/>
</g>
<g opacity="0.8">
<path d="M318 433.027L429.359 289.26C431.013 287.125 434.264 287.208 435.806 289.426L460.932 325.562C462.346 327.595 465.25 327.868 467.018 326.133L721.463 76.3884C722.052 75.8103 722.806 75.4286 723.62 75.2955L855.531 53.7401C856.478 53.5852 857.45 53.7766 858.269 54.2791L958.971 116.117C959.823 116.64 960.839 116.825 961.821 116.636L1151.59 80.0785C1151.86 80.0263 1152.13 79.9463 1152.38 79.8396L1297.21 19.1198C1297.4 19.0401 1297.6 18.9751 1297.8 18.9256L1386.5 -3" stroke="url(#paint2_radial_62_4078)" stroke-width="5"/>
<path d="M429.359 289.26L318.838 431.946C318.295 432.647 318 433.509 318 434.396V483.501C318 485.71 319.791 487.501 322 487.501H1374C1376.21 487.501 1378 485.71 1378 483.501V329.452L1382.42 -13.7853C1382.46 -16.695 1379.47 -18.6697 1376.81 -17.4985L1150.93 81.8119C1150.64 81.9369 1150.35 82.0283 1150.04 82.0844L961.786 116.657C960.825 116.834 959.833 116.652 958.997 116.148L857.278 54.771C856.454 54.2737 855.478 54.0903 854.53 54.2543L724.221 76.7889C723.426 76.9264 722.691 77.3012 722.112 77.8641L467.017 326.162C465.247 327.885 462.354 327.607 460.943 325.579L435.806 289.426C434.264 287.209 431.013 287.125 429.359 289.26Z" fill="url(#paint3_linear_62_4078)"/>
<path d="M516.296 116.5L514.904 112.828H507.464L506.072 116.5H503.384L509.672 100.18H512.816L519.104 116.5H516.296ZM510.704 104.356L508.28 110.716H514.088L511.664 104.356L511.184 102.772L510.704 104.356ZM522.291 116.5L517.587 103.708H520.347L523.635 113.212L523.947 114.436L524.259 113.212L527.523 103.708H530.139L525.435 116.5H522.291ZM542.363 112.324C541.667 115.3 539.459 116.812 536.459 116.812C532.691 116.812 530.387 114.292 530.387 110.116C530.387 105.772 532.691 103.372 536.339 103.372C540.035 103.372 542.267 105.868 542.267 109.972V110.596H533.003C533.147 113.212 534.371 114.676 536.459 114.676C538.091 114.676 539.243 113.908 539.675 112.324H542.363ZM536.339 105.508C534.491 105.508 533.387 106.684 533.075 108.844H539.603C539.291 106.684 538.163 105.508 536.339 105.508ZM554.943 108.172H552.375C552.063 106.348 550.887 105.532 549.399 105.532C547.263 105.532 546.111 107.164 546.111 110.116C546.111 113.02 547.311 114.676 549.471 114.676C551.007 114.676 552.087 113.836 552.471 112.204H555.015C554.463 115.396 552.255 116.812 549.423 116.812C545.727 116.812 543.495 114.268 543.495 110.116C543.495 105.772 545.775 103.372 549.399 103.372C552.255 103.372 554.511 104.98 554.943 108.172ZM560.871 116.5V100.18H566.871C570.327 100.18 572.511 101.884 572.511 104.62C572.511 106.132 571.743 107.308 570.327 107.908C572.343 108.508 573.423 109.924 573.423 111.844C573.423 114.796 571.287 116.5 567.687 116.5H560.871ZM566.799 102.316H563.559V107.116H566.751C568.671 107.116 569.751 106.156 569.751 104.764C569.751 103.252 568.647 102.316 566.799 102.316ZM567.351 109.204H563.559V114.364H567.615C569.511 114.364 570.663 113.332 570.663 111.772C570.663 110.212 569.439 109.204 567.351 109.204ZM580.545 116.812C576.825 116.812 574.569 114.292 574.569 110.116C574.569 105.772 576.897 103.372 580.545 103.372C584.265 103.372 586.521 105.94 586.521 110.116C586.521 114.436 584.193 116.812 580.545 116.812ZM580.545 114.652C582.729 114.652 583.905 113.068 583.905 110.116C583.905 107.188 582.705 105.532 580.545 105.532C578.385 105.532 577.185 107.14 577.185 110.116C577.185 113.02 578.385 114.652 580.545 114.652ZM593.653 116.812C589.933 116.812 587.677 114.292 587.677 110.116C587.677 105.772 590.005 103.372 593.653 103.372C597.373 103.372 599.629 105.94 599.629 110.116C599.629 114.436 597.301 116.812 593.653 116.812ZM593.653 114.652C595.837 114.652 597.013 113.068 597.013 110.116C597.013 107.188 595.813 105.532 593.653 105.532C591.493 105.532 590.293 107.14 590.293 110.116C590.293 113.02 591.493 114.652 593.653 114.652ZM603.449 107.068C603.449 110.332 611.633 107.596 611.633 112.804C611.633 115.228 609.449 116.812 606.353 116.812C603.257 116.812 601.073 115.372 600.593 112.324H603.161C603.425 113.932 604.625 114.82 606.425 114.82C608.153 114.82 609.065 114.052 609.065 112.972C609.065 109.78 601.001 112.468 601.001 107.212C601.001 105.22 602.561 103.372 605.801 103.372C608.657 103.372 610.769 104.692 611.177 107.884H608.609C608.321 106.084 607.313 105.412 605.681 105.412C604.265 105.412 603.449 106.108 603.449 107.068ZM613.588 112.684V105.7H611.86V103.708H613.588V100.756H616.156V103.708H618.916V105.7H616.156V112.54C616.156 114.004 616.564 114.7 618.364 114.7H618.868V116.572C618.58 116.716 617.98 116.812 617.26 116.812C614.764 116.812 613.588 115.444 613.588 112.684Z" fill="#184DD9"/>
<circle cx="564.972" cy="227.477" r="6" fill="#184DD9"/>
<line x1="563.882" y1="226.531" x2="563.882" y2="140.602" stroke="#184DD9" stroke-width="2"/>
</g>
</g>
<defs>
<radialGradient id="paint0_radial_62_4078" cx="0" cy="0" r="1" gradientTransform="matrix(-496.75 0.368082 -1.14997 -1097.54 625.751 277.999)" gradientUnits="userSpaceOnUse">
<stop stop-color="#184DD9"/>
<stop offset="1" stop-color="#184DD9" stop-opacity="0"/>
</radialGradient>
<linearGradient id="paint1_linear_62_4078" x1="625.75" y1="119" x2="625.75" y2="472.5" gradientUnits="userSpaceOnUse">
<stop stop-color="#184DD9" stop-opacity="0.15"/>
<stop offset="1" stop-color="#184DD9" stop-opacity="0"/>
</linearGradient>
<radialGradient id="paint2_radial_62_4078" cx="0" cy="0" r="1" gradientTransform="matrix(-530 0.564803 -1.22694 -1684.12 848 189.046)" gradientUnits="userSpaceOnUse">
<stop stop-color="#184DD9"/>
<stop offset="1" stop-color="#184DD9" stop-opacity="0"/>
</radialGradient>
<linearGradient id="paint3_linear_62_4078" x1="848" y1="-54.9274" x2="848" y2="487.501" gradientUnits="userSpaceOnUse">
<stop stop-color="#184DD9" stop-opacity="0.15"/>
<stop offset="1" stop-color="#184DD9" stop-opacity="0"/>
</linearGradient>
<clipPath id="clip0_62_4078">
<rect width="1387" height="521" fill="white"/>
</clipPath>
</defs>
</svg>
